# xmcd
#
# Track frame offsets:
#	150
#	16365
#	39663
#	56465
#	66358
#	80446
#	98519
#	124587
#	141414
#	153608
#	175111
#	192412
#	213335
#
# Disc length: 3099 seconds
#
# Revision: 1
# Processed by: cddbd v1.5.2PL0 Copyright (c) Steve Scherf et al.
# Submitted via: audiograbber 1.80
#
DISCID=b20c190d
DTITLE=Johnny Raducanu - Balada lautareasca
DYEAR=1900
DGENRE=
TTITLE0=Hora Bucurestilor
TTITLE1=Balada lautareasca
TTITLE2=Cantecul codrului
TTITLE3=Gluma
TTITLE4=Blues moldav
TTITLE5=Iarna, iarna
TTITLE6=Iarta-ma
TTITLE7=Epu blues
TTITLE8=Mainile olarului
TTITLE9=Octombrie song
TTITLE10=Tescani
TTITLE11=Vals nostalgic
TTITLE12=Timpul trece
EXTD=
EXTT0=
EXTT1=
EXTT2=
EXTT3=
EXTT4=
EXTT5=
EXTT6=
EXTT7=
EXTT8=
EXTT9=
EXTT10=
EXTT11=
EXTT12=
PLAYORDER=
